<?xml version="1.0" standalone="no"?>
<!DOCTYPE svg PUBLIC "-//W3C//DTD SVG 20010904//EN"
 "http://www.w3.org/TR/2001/REC-SVG-20010904/DTD/svg10.dtd">
<svg version="1.0" xmlns="http://www.w3.org/2000/svg"
 width="116.000000pt" height="116.000000pt" viewBox="0 0 116.000000 116.000000"
 preserveAspectRatio="xMidYMid meet">
<metadata>
Created by potrace 1.11, written by Peter Selinger 2001-2013
</metadata>
<g transform="translate(0.000000,116.000000) scale(0.100000,-0.100000)"
fill="#000000" stroke="none">
<path d="M372 1016 c-81 -78 -193 -188 -250 -243 l-103 -99 5 -75 c4 -59 9
-77 25 -91 12 -9 21 -21 21 -26 0 -14 27 -23 46 -15 13 5 13 7 2 14 -19 12
-30 11 -22 -3 5 -7 3 -8 -5 -4 -7 5 -10 10 -7 14 3 3 -2 11 -12 18 -14 11 -15
15 -3 26 12 11 13 11 6 -1 -4 -8 -2 -17 6 -22 23 -14 32 -10 18 9 -13 15 -12
16 4 3 9 -8 15 -16 12 -19 -3 -3 6 -13 19 -21 22 -15 23 -18 9 -36 -15 -19
-15 -19 -8 3 6 22 5 23 -14 13 -12 -7 -21 -15 -21 -18 0 -3 2 -4 5 -1 3 3 30
-19 60 -48 30 -30 56 -51 56 -49 1 3 2 9 3 14 2 20 18 25 27 8 6 -9 15 -14 21
-11 6 4 8 3 4 -4 -3 -5 -1 -12 6 -14 7 -3 2 -7 -10 -10 -12 -4 -25 -1 -29 4
-3 7 -1 8 5 4 7 -4 12 -3 12 3 0 15 -18 23 -25 10 -8 -12 106 -129 125 -129 6
0 9 -4 6 -9 -9 -14 18 -31 34 -21 8 5 11 12 7 17 -5 4 -12 1 -16 -6 -6 -9 -11
-10 -15 -2 -4 6 -3 11 3 11 5 0 8 11 6 25 -3 33 1 32 20 -5 8 -16 19 -29 23
-27 4 1 9 -2 12 -8 3 -5 -2 -10 -10 -11 -8 -1 -19 -2 -24 -2 -14 -3 55 -72 71
-72 7 0 13 -6 13 -14 0 -17 48 -50 75 -51 27 -1 66 16 59 26 -3 5 -1 9 4 9 14
0 52 36 45 44 -3 3 0 6 8 6 8 0 35 22 61 49 26 27 54 51 63 54 8 4 20 18 27
32 6 14 17 25 23 25 7 0 15 9 18 21 3 12 10 18 17 14 7 -4 14 2 17 14 3 11 9
19 13 16 5 -3 11 -1 14 4 4 5 2 13 -4 16 -14 8 -40 -12 -36 -28 1 -7 1 -8 -2
-4 -2 4 -11 0 -19 -10 -12 -14 -12 -13 1 9 8 14 12 28 8 31 -4 2 -2 2 5 1 17
-4 26 13 11 20 -7 3 -3 3 10 0 22 -5 31 10 12 19 -6 3 -5 4 2 3 7 -2 12 -11
12 -20 -1 -11 4 -16 15 -14 19 4 22 43 4 43 -7 0 -13 5 -13 10 0 6 10 10 22
10 12 0 23 6 26 14 3 9 0 11 -9 5 -12 -7 -12 -5 0 9 7 9 18 17 23 17 15 0 5
-34 -15 -48 -9 -7 -15 -17 -12 -22 3 -5 33 18 67 51 33 33 58 62 55 66 -4 3
-2 14 3 24 7 12 7 20 0 24 -7 4 -7 12 0 25 26 49 -14 110 -72 110 -37 0 -50
-12 -319 -275 l-140 -137 -67 65 c-135 130 -224 212 -233 215 -18 7 -8 22 46
76 53 52 67 76 45 76 -5 0 -10 -4 -10 -8 0 -5 -7 -9 -16 -9 -14 0 -14 2 2 14
11 8 18 17 17 21 -1 4 1 9 4 12 4 3 3 -1 -2 -9 -5 -9 -3 -12 6 -9 8 3 13 11
11 17 -1 8 2 9 9 5 9 -5 10 -2 6 9 -4 12 -2 14 10 10 10 -4 14 -2 9 5 -9 15
14 26 27 13 9 -9 8 -11 -4 -6 -10 4 -16 0 -16 -10 0 -8 4 -15 9 -15 5 0 6 -5
2 -11 -5 -8 -9 -8 -14 1 -6 9 -9 9 -16 -1 -11 -18 -13 -49 -2 -43 4 3 8 12 8
20 0 8 4 13 9 10 5 -3 14 1 21 9 7 8 9 15 6 15 -4 0 -1 6 6 14 7 8 16 12 20 9
4 -2 5 3 2 11 -3 9 -9 15 -12 14 -4 0 -13 0 -19 1 -15 1 70 81 86 81 7 0 10 4
6 9 -3 5 0 13 6 17 8 5 9 3 4 -6 -5 -8 -3 -11 6 -8 8 3 14 11 15 19 0 8 2 18
2 23 3 11 32 -14 32 -27 0 -6 -7 -2 -16 9 -13 16 -15 16 -10 2 3 -11 -3 -23
-15 -32 -15 -10 -17 -15 -7 -20 7 -3 2 -3 -12 1 -23 5 -24 5 -10 -12 12 -15
12 -17 1 -10 -10 6 -12 4 -6 -5 5 -9 4 -11 -4 -6 -6 4 -8 12 -5 18 4 6 1 9 -6
6 -15 -5 -22 -48 -8 -48 4 0 8 5 8 11 0 5 4 8 9 5 9 -6 49 33 50 49 1 6 5 10
10 10 5 0 20 11 33 25 24 24 29 51 30 148 0 36 -40 72 -79 72 -29 0 -51 -17
-181 -144z m248 -16 c0 -5 -8 -14 -17 -19 -17 -10 -16 -10 2 -11 16 0 17 -2 5
-10 -19 -12 -32 8 -19 32 10 19 29 25 29 8z m-305 -290 c3 -5 13 -6 23 -3 9 3
14 3 10 -1 -5 -7 -27 -13 -51 -15 -5 -1 -5 -6 -2 -11 4 -6 12 -8 18 -4 19 9
-36 -35 -58 -48 -11 -6 -17 -7 -13 -3 4 5 4 13 -2 20 -6 8 -2 11 17 11 14 -1
28 5 31 13 3 9 0 11 -9 7 -8 -4 -4 1 9 12 15 14 18 22 10 25 -9 4 -10 6 -1 6
6 1 14 -3 18 -9z m-250 -152 c5 4 5 2 1 -5 -9 -16 -33 -6 -33 14 0 14 1 14 12
-1 7 -8 16 -12 20 -8z m989 -19 c-4 -8 1 -9 15 -4 22 7 22 6 -1 -17 -13 -13
-28 -33 -34 -43 -10 -18 -11 -18 -8 5 1 14 3 29 3 33 1 5 6 5 11 2 6 -3 10 -1
10 4 0 6 -6 11 -12 11 -9 0 -8 4 2 10 20 13 23 12 14 -1z m-889 -99 c-3 -5 -2
-10 4 -10 5 0 11 5 13 12 3 7 7 5 11 -6 4 -10 3 -15 -3 -11 -6 3 -10 2 -10 -3
0 -17 13 -22 27 -10 11 8 12 7 7 -6 -5 -13 -2 -15 12 -10 20 8 19 6 -10 -16
-13 -10 -17 -10 -12 -2 6 10 -6 17 -18 10 -2 -2 -13 6 -25 16 -16 15 -18 22
-10 33 13 15 23 18 14 3z m687 -102 c-8 -8 -8 -15 -1 -24 8 -10 6 -12 -11 -9
-17 3 -20 0 -15 -15 4 -12 2 -20 -4 -20 -6 0 -10 -5 -8 -12 1 -7 -6 -12 -15
-11 -48 2 -49 2 -28 23 11 11 23 20 28 20 4 0 18 16 32 34 14 19 27 32 29 30
3 -2 -1 -10 -7 -16z m-544 -21 c-5 -7 24 -37 31 -33 4 3 7 -4 8 -14 1 -11 -2
-22 -7 -25 -9 -6 -28 21 -28 40 0 5 -6 11 -13 14 -7 2 -9 -1 -4 -9 5 -9 4 -11
-4 -6 -6 4 -9 11 -6 16 3 4 -1 11 -7 14 -7 3 -2 3 11 0 18 -5 22 -3 16 7 -5 8
-5 11 -1 7 4 -3 6 -8 4 -11z m62 -77 c0 -5 -5 -10 -11 -10 -5 0 -7 5 -4 10 3
6 8 10 11 10 2 0 4 -4 4 -10z m397 -6 c-3 -3 -12 -4 -19 -1 -8 3 -5 6 6 6 11
1 17 -2 13 -5z m-1 -16 c5 4 -2 -5 -15 -21 -16 -17 -31 -25 -42 -22 -12 4 -16
0 -15 -12 1 -13 -5 -17 -21 -16 -17 2 -21 -2 -18 -17 2 -11 -1 -23 -7 -27 -17
-10 -68 -11 -68 -1 0 4 6 8 13 8 6 0 33 20 60 44 26 24 50 40 53 35 3 -5 10
-9 16 -9 7 0 6 6 -2 15 -9 11 -9 15 -1 15 7 0 9 5 5 11 -5 8 -1 8 13 0 11 -6
24 -7 29 -3z m-315 -48 c12 7 20 6 25 -2 4 -6 3 -8 -3 -5 -6 4 -13 0 -16 -7
-4 -11 1 -14 21 -12 17 2 32 -3 40 -16 7 -10 18 -16 23 -13 5 3 6 -2 2 -11 -5
-13 -3 -15 7 -9 8 5 18 1 27 -10 7 -11 13 -13 13 -6 0 7 5 9 11 5 16 -10 -9
-23 -32 -17 -12 3 -19 0 -19 -8 0 -11 -2 -11 -9 1 -6 8 -7 18 -4 23 3 5 -5 6
-18 3 -21 -6 -22 -5 -6 4 14 9 16 15 6 26 -6 8 -16 14 -21 14 -6 0 -5 -7 3
-16 9 -11 2 -9 -23 5 -19 12 -44 31 -54 44 -10 12 -12 17 -5 10 10 -8 20 -9
32 -3z"/>
<path d="M150 426 c0 -2 8 -10 18 -17 15 -13 16 -12 3 4 -13 16 -21 21 -21 13z"/>
<path d="M798 279 c-22 -12 -23 -26 -3 -26 8 0 13 3 10 5 -3 3 0 11 6 19 13
15 10 16 -13 2z"/>
<path d="M326 267 c3 -10 9 -15 12 -12 3 3 0 11 -7 18 -10 9 -11 8 -5 -6z"/>
<path d="M730 199 c0 -5 5 -7 10 -4 6 3 10 8 10 11 0 2 -4 4 -10 4 -5 0 -10
-5 -10 -11z"/>
<path d="M675 160 c-3 -5 -1 -10 4 -10 6 0 11 5 11 10 0 6 -2 10 -4 10 -3 0
-8 -4 -11 -10z"/>
<path d="M627 120 c-16 -20 -12 -27 8 -12 9 6 19 32 12 32 -1 0 -10 -9 -20
-20z"/>
<path d="M545 80 c-3 -6 1 -7 9 -4 18 7 21 14 7 14 -6 0 -13 -4 -16 -10z"/>
<path d="M455 848 c-11 -12 -15 -18 -8 -14 6 3 14 2 18 -4 3 -5 11 -10 18 -10
8 0 8 3 0 11 -6 6 -9 18 -6 25 7 19 2 17 -22 -8z"/>
</g>
</svg>
